<?xml version="1.0" encoding="utf-8"?>
<!-- Generator: Adobe Illustrator 18.1.1, SVG Export Plug-In . SVG Version: 6.00 Build 0)  -->
<svg version="1.1" id="Face" xmlns="http://www.w3.org/2000/svg" xmlns:xlink="http://www.w3.org/1999/xlink" x="0px" y="0px"
	 viewBox="0 0 100 100" enable-background="new 0 0 100 100" xml:space="preserve">
<g id="face">
	<path fill="#FFFFFF" d="M23.3,45.25c2.6,6.44,0.62,8.93,1.62,15.18c0.37,2.33,3.15,14.49,11.38,23.32
		c2.93,3.15,6.14,6.38,11.08,6.88c20.02-5.3,27.05-20.41,28.74-32.53c0.17,1.57,4.03,2.83,5.82,0.05c1.86-2.89,3.92-7.8,3.44-12.19
		c-0.41-3.72-1.74-6.46-2.68-8.25c-2.73-5.17-6.49-12.29-14.37-18.26c-4.71-3.57-18.48-14.02-32.68-8.7
		c-10.5,3.93-18.7,15.54-17.1,24.03C19.24,38.47,20.84,39.17,23.3,45.25z"/>
</g>
<g id="beard">
	<path d="M39.38,85.73c2.08,0.58,5.02,1.15,8.55,1.06c4.41-0.1,7.93-1.18,10.17-2.07c-0.36,2.03-1.14,5-2.92,8.22
		c-1.85,3.36-4.07,5.66-5.63,7.06C41.65,96.33,39.38,85.73,39.38,85.73z"/>
</g>
<g id="piercing">
	<path d="M43.56,63.47c0.33,3.26-3.24,3.54-3.67,0.79l-0.63-0.12c0.2,3.55,5.66,3.85,4.83-1.08L43.56,63.47z"/>
</g>
<g id="eye">
	<path d="M34.39,41.95c-4.17-2.26-12.33-8.57-11.84,0.93C24.66,38.38,30.3,40.98,34.39,41.95z"/>
</g>
<g id="glass">
	<path d="M56.84,55.4c-5.17-0.03-9.83-2.58-12.76-6.81c-0.32-0.46-0.68-0.99-1.03-1.57c-1.39-1.87-2.15-5.06,0.06-6.41
		c0.27-0.25,0.57-0.48,0.87-0.69c0.61-0.42,1.28-0.76,1.87-1.04c3.93-1.8,9.07-2.52,13.32-1.64c4.4,0.91,6.63,4.02,6.7,8.42
		C65.97,51.01,62.35,55.43,56.84,55.4C49.03,55.36,64.1,55.44,56.84,55.4z"/>
	<path d="M36.78,50.14c-0.69,4.57-3.48,10.46-8.84,10.51c-5.24,0.06-8.42-5.03-9.25-9.66c-0.97-5.42,3.48-7.87,8.28-8.61
		c2.37-0.36,5.9-0.77,7.89,0.87C36.78,44.84,37.12,47.85,36.78,50.14C36.04,54.97,36.95,48.98,36.78,50.14z"/>
	<path d="M46.93,38.39c-0.61,0.53-3.79,1.01-8.42,2.15c-4.64,1.14-7.73,1.84-8.78,1.54c-0.1-0.03,0.06-0.3,0.18-0.3
		c3.11,0.04,14.17-2.83,16.72-3.67C46.75,38.07,47.03,38.3,46.93,38.39z"/>
	<path d="M72.82,39.77c-1.49,0.96-3.1,1.82-4.77,2.42c-0.6,0.21-1.54,0.6-2.2,0.44c-0.75-0.19-0.64-0.39-0.93-1.17
		c1.67,0.22,2.97-0.36,4.4-1.07c0.79-0.39,1.58-0.78,2.35-1.21c0.16-0.09,0.63-0.48,0.79-0.46C72.77,38.74,73.28,39.41,72.82,39.77
		C71.47,40.64,73.26,39.43,72.82,39.77z"/>
	<path d="M18.71,51.15c-0.59-0.02-2.31,0.19-1.87-0.99c0.13-0.36,1.24-0.84,1.57-1.06C18.52,49.78,18.6,50.47,18.71,51.15z"/>
	<path d="M38.9,43.31c0.58-0.15,0.99-0.17,1.44-0.08c0.66,0.13,0.77,0.4,0.96,0.89c0.1,0.19,0.29,0.59,0.46,1.26
		c0.06,0.12,0.29,0.08,0.4,0c0.32-0.23-0.19-1.42-0.38-1.87s-0.4-0.45-1.01-0.66c-1.49-0.42-4.39,0.71-4.35,1.64
		c-0.05,0.36-0.05,0.82-0.03,1.04c0.02,0.23,0.1,1.07,0.35,1.11c0.15,0.02,0.29-0.22,0.33-0.28c-0.07-0.78-0.44-1.6,0.05-2.2
		C37.43,43.8,37.96,43.55,38.9,43.31z"/>
</g>
<g id="cap">
	<g>
		<linearGradient id="SVGID_1_" gradientUnits="userSpaceOnUse" x1="29.9172" y1="1.842" x2="53.0913" y2="16.2351">
			<stop  offset="0" style="stop-color:#171717"/>
			<stop  offset="1" style="stop-color:#000000"/>
		</linearGradient>
		<path d="M43.38,0.28c26.2-3.13,38.05,20.68,37.34,28.18c-0.12,1.26,0.5,3.21,2.33,5.57
			c2.46,3.19,3.13,4.93,3.39,7.69c0.16,1.66-0.64,5.12-0.86,4.3c-0.59-2.18-2.49-6.32-7.18-11.03c-4.29-4.31-6.55-5.34-12.09-8.09
			c-8.85-12.32-45.19-10.52-44.22-10.93C22.63,15.74,29.41,1.95,43.38,0.28z"/>
	</g>
	<path d="M19.6,43.18c-5.64-2.81-8.32-14.78-3.69-21.91c3.23-4.97,9.65-7.38,15.73-7.39c19.55,1.69,34.93,10.33,34.55,10.52
		c0,0,6.61,6.15-0.05,2.38c-0.52,0.14-9.71-6.55-21.05-8.25c-11.39-1.7-17.71,2.02-20.95,6.48c-3.51,4.12-3.7,14.28-1.57,18.62
		C21.7,44.38,20.29,43.53,19.6,43.18z"/>
</g>
</svg>
